PathFileType	3	(X/Y/Z)	D:\Jess\PFP\Labelled\PA17\20250829\SRRun01.trc
DataRate	CameraRate	NumFrames	NumMarkers	Units	OrigDataRate	OrigDataStartFrame	OrigNumFrames
250.0	250.0	6	33	mm	250.0	36563	2501
Frame#	Time	C7			T10			CLAV			LSHO			RSHO			LASIS			RASIS			LPSIS			RPSIS			LILCR			RILCR			LGTR			LTHI			LLTHI			LLEP			LPSH			LLSH			LDSH			LLMAL			LTOE			L5TH			LHEE			RGTR			RTHI			RLTHI			RLEP			RPSH			RLSH			RDSH			RLMAL			RTOE			R5TH			RHEE			
		X1	Y1	Z1	X2	Y2	Z2	X3	Y3	Z3	X4	Y4	Z4	X5	Y5	Z5	X6	Y6	Z6	X7	Y7	Z7	X8	Y8	Z8	X9	Y9	Z9	X10	Y10	Z10	X11	Y11	Z11	X12	Y12	Z12	X13	Y13	Z13	X14	Y14	Z14	X15	Y15	Z15	X16	Y16	Z16	X17	Y17	Z17	X18	Y18	Z18	X19	Y19	Z19	X20	Y20	Z20	X21	Y21	Z21	X22	Y22	Z22	X23	Y23	Z23	X24	Y24	Z24	X25	Y25	Z25	X26	Y26	Z26	X27	Y27	Z27	X28	Y28	Z28	X29	Y29	Z29	X30	Y30	Z30	X31	Y31	Z31	X32	Y32	Z32	X33	Y33	Z33	

1564	146.248	810.4679199216988	1481.903254997696	-1080.629788169105	811.7949898981879	1248.166911767187	-1002.982268250209	805.3713269415069	1381.76982756706	-1222.252827836712	639.6546073216277	1458.840129080943	-1125.166757612524	979.4435634395825	1430.266635558006	-1158.033486278962	675.2006896704977	951.3697232988425	-1176.888755561278	920.2718561885365	949.573205496318	-1182.040623544754	777.6811635501931	1028.947878760935	-980.3889585293239	814.0535645554378	1031.217662812546	-981.6241548010167	626.7532916409474	1036.964482850855	-1106.001061124706	964.4367724247837	1040.911719746701	-1113.30416725291	605.9656559090869	891.3975050817255	-1092.297375516957	692.0620799361973	733.3386709532115	-1239.154189537838	615.6808146330033	618.8169308396688	-1157.327062150133	638.4498594553736	479.1088787141171	-1190.293086336041	680.9282892753856	395.2606498214365	-1195.666974517046	638.5564913756981	386.4585353194024	-1025.835437981108	670.7405037756085	280.6153401575823	-1008.329180634497	650.3638807906929	255.7957095652272	-886.4953892558914	601.6451872214629	132.5120866111081	-944.2546203285904	579.8759894414097	145.2551237821874	-903.6955234513621	706.0604035312002	264.5066846737328	-825.7569751100687	997.8348436488127	895.5386535720991	-1099.345689830313	885.6890183920324	700.7923327662103	-1192.814119727462	952.8369236804328	617.9996964444774	-1079.035244812041	908.6429785002572	448.9595854253893	-1062.7481004698	847.9861186444942	376.820631364179	-1087.562969000425	908.2192962086527	285.4014887571601	-969.5002714805482	856.003826629414	202.1082726570939	-978.1639081262419	874.5814218304978	113.1423938119429	-885.0056285058656	873.3134866927099	56.34367862490752	-1015.844649659979	910.6332511171738	38.89012353172184	-976.9911525042279	835.0322341390206	84.33566229326993	-810.8512577102396	
1565	146.252	810.8072824634789	1484.13557035252	-1080.495278153857	813.1193878510231	1250.204303302685	-1003.52433981916	803.8994076592619	1384.599941727189	-1222.131170789627	639.6687722646411	1461.578424847749	-1122.708529281172	978.7479346362617	1432.93554591421	-1160.013080778504	673.8876281059535	954.195779533788	-1176.26144304279	918.9334736646967	950.4650492226397	-1183.326888973836	779.404194070152	1031.476604853609	-980.7485576901918	815.8168434724267	1033.616632482364	-982.3971375441616	626.4110538013663	1039.760077220765	-1105.129764908336	964.3907399558885	1041.943288827879	-1116.494917555294	605.3803515987455	894.6126341650947	-1091.097956835008	691.4651851756811	737.7813566384172	-1239.945417601544	616.1668535294824	622.5833262852158	-1160.596133495766	639.8174062634646	482.4956529449897	-1194.426392875718	682.6820969678569	398.7556274876731	-1201.264537351645	639.0596995527125	384.9646436982721	-1031.970684168477	671.7141376906276	278.7456277857423	-1017.191891193497	650.5790681931031	250.2238037195231	-896.1754591753847	602.7467611454148	128.6981141044587	-958.2250282103752	580.6369709211342	139.9881495257378	-917.3987327604539	705.8033640372524	257.2161514267404	-834.7353421025064	997.5327280947346	896.3688218604665	-1101.058868771574	883.6569103973883	701.0985843774407	-1189.396888045983	952.4622663064189	619.9633284554936	-1074.71647842395	908.7219517502201	451.1400118453186	-1054.701063801675	848.1269039525446	378.5698237434848	-1079.072306621352	908.413968111344	287.7248558353492	-960.7375989016357	856.3107246114936	204.1366550928934	-969.4686337443519	874.8024515926581	115.1109693853549	-876.1842785039371	873.314131061245	56.26971848038777	-1006.344371550879	910.5064806237639	39.09094322971252	-967.307900047991	835.1859395770381	86.94927201588136	-802.0206762881118	
1566	146.256	811.1359524025779	1486.415695380527	-1080.372713089711	814.4426645976773	1252.280131093222	-1004.100120778519	802.4370555346303	1387.49021387585	-1222.005248600649	639.7218737453272	1464.332407104644	-1120.288492783946	978.0272814810968	1435.659134585414	-1161.972636342315	672.5422976152137	956.9603456442881	-1175.699951197947	917.6090079845595	951.3515633645995	-1184.627544464751	781.0286236874729	1034.08035802676	-981.2123211908666	817.4831881375721	1036.092095896697	-983.2657002879455	626.1225418798416	1042.566576361635	-1104.293850309862	964.3326484495468	1042.956069877671	-1119.775154360336	604.7377328677042	897.8972458430721	-1090.065388939813	690.8394837137672	742.3004881373979	-1240.732054467219	616.7309598905368	626.3940516867265	-1163.713824602641	641.2044880148928	485.9030315866543	-1198.245407604966	684.4376191630665	402.3008338634245	-1206.611688201867	639.6067884015907	383.3541119893003	-1038.021200210039	672.7011071967314	276.8280934954442	-1026.104586172208	650.8618819409766	244.5210130674147	-906.0443962305147	603.8289043265539	124.9666287134748	-972.3795922831955	581.4145626364744	134.7809419639888	-931.3114176544465	705.6658703585799	249.6890223014841	-844.0028229008537	997.1912869750475	897.2511114659828	-1102.766393095027	881.5782938555826	701.5801391610133	-1186.040396959702	952.0299195853217	622.0630731931443	-1070.453981531832	908.8019261044561	453.5516505939689	-1046.691550290042	848.2612928450537	380.546420174402	-1070.630518214526	908.625860895705	290.2578759627973	-952.0599973317602	856.6521869321535	206.3656621762086	-960.8964484129582	875.0592457541376	117.257696431434	-867.5105617525411	873.3170789725549	56.17738415076506	-996.8923129552261	910.368257856794	39.32031670468773	-957.6568072465587	835.3732627652698	89.82238575063087	-793.3409559641688	
1567	146.26	811.4519074504628	1488.730866794799	-1080.262026406182	815.7624913032607	1254.38655908355	-1004.708889232593	800.9881384112484	1390.426860329494	-1221.873800184937	639.8129455796034	1467.086961117077	-1117.915305508736	977.2822388158236	1438.425936654835	-1163.907595364428	671.180248555799	959.6733546555937	-1175.210229629392	916.2967525848002	952.235851253275	-1185.93756643168	782.5406623708633	1036.753213330816	-981.7839538789574	819.0360532017091	1038.635347773646	-984.2311016546964	625.888436158343	1045.39723291315	-1103.487288618989	964.2485105112731	1043.951513530555	-1123.117266601365	604.0468056187618	901.2490546359501	-1089.202986210012	690.2023072414457	746.8775658063369	-1241.525808328058	617.3779587367453	630.2164791704121	-1166.663515298156	642.6016241755058	489.2998105586681	-1201.742355836549	686.1857778579548	405.8735677927198	-1211.697855576171	640.1922083295485	381.6219054831095	-1043.994480112965	673.6991488345001	274.868734509507	-1035.066682666353	651.2100264606561	238.7066443031196	-916.1118879080603	604.897631876451	121.3371339353259	-986.7149025918765	582.2108438294832	129.6557729637698	-945.4349149594619	705.6438594829735	241.9544027427963	-853.571486988869	996.8003028085657	898.1834773025099	-1104.452496467767	879.4698954052402	702.2066320629001	-1182.754871214246	951.5507741370071	624.2857875857234	-1066.251121001971	908.8948621033524	456.1759532118598	-1038.744180021395	848.4012017108929	382.7356759777292	-1062.260793300134	908.8608069455553	292.986275334583	-943.4877731233223	857.0364874613731	208.7845173057672	-952.4637696331195	875.3562384028342	119.5749774515574	-858.9963295937407	873.326743416373	56.06325001332414	-987.4954051216304	910.2235573623061	39.57650134123419	-948.0442842507354	835.5943267489683	92.94910233824208	-784.8240211325183	
1568	146.264	811.7529572140228	1491.06859330252	-1080.163133795878	817.0771081217119	1256.515862611066	-1005.350037427934	799.5558806970196	1393.396545076315	-1221.735532154458	639.9401606530917	1469.828152904654	-1115.596472822162	976.5131328601283	1441.225365282516	-1165.814138676588	669.8176249517321	962.3478687458532	-1174.797341997307	914.9940695735638	953.121085554031	-1187.252092620329	783.9292101686428	1039.487253859139	-982.4646705318007	820.4617858507471	1041.236053070102	-985.2925674336884	625.7074496838417	1048.266027442933	-1102.705399796419	964.1239410493405	1044.930907545802	-1126.493934142652	603.3173046487227	904.6647090221926	-1088.512047686046	689.5708116262879	751.4941205712894	-1242.337072575315	618.1120359621799	634.019585000628	-1169.427325589354	643.9995718021356	492.655652478076	-1204.910977138775	687.9184524198823	409.4512694704261	-1216.514172940917	640.8094511831576	379.7643999644909	-1049.899178904062	674.7068525989356	272.8746577145852	-1044.077139311207	651.6203007660691	232.801534177829	-926.3867699934153	605.9624651323275	117.8289658407317	-1001.227786531153	583.0303918625777	124.6342395339735	-959.7713772110235	705.7303248942325	234.0443301822196	-863.4505107598683	996.3510619156013	899.1627031380283	-1106.103545380482	877.3487044673534	702.9479109224629	-1179.549013013977	951.0370801786063	626.618748482349	-1062.110971668602	909.0122705752719	458.9934489534272	-1030.883666895466	848.5594807590967	385.1214790076627	-1053.986715542096	909.1239029055364	295.8947486079647	-935.0401310230139	857.4715505580164	211.3807254380157	-944.1865136573076	875.6971992251748	122.053108421873	-850.6529892379765	873.3473834883321	55.92541980130195	-978.1610835928059	910.0775442648608	39.85842535484493	-938.477575479214	835.8487091696984	96.32048777512183	-776.4815045528412	
1569	146.268	812.0368480307923	1493.416689737487	-1080.076009469489	818.3852730979212	1258.660423545038	-1006.022956578119	798.1428670281771	1396.386295922684	-1221.589217941066	640.1009294116808	1472.543139194622	-1113.33842661693	975.719998968249	1444.04755171049	-1167.689113275644	668.4707584343421	964.9987333249583	-1174.46529492266	913.697889346918	954.0102162095385	-1188.566421528994	785.1857986332415	1042.272769000816	-983.2531500199831	821.7496949937985	1043.882633240875	-986.4471932780965	625.5767373685676	1051.186329975645	-1101.945059243616	963.9447360224262	1045.895451727106	-1129.878679595737	602.5593248869836	908.1393746904374	-1087.992145706235	688.9613290592724	756.1317316464707	-1243.17453347919	618.9363087947035	637.7744904563258	-1171.986278863788	645.389381947666	495.9415378312929	-1207.746798877459	689.6285281494496	413.0117637556918	-1221.053706989493	641.4512536501595	377.7796592393865	-1055.744975106289	675.7237335051444	270.8541583542722	-1053.134218098183	652.0888715823919	226.8281620687709	-936.8766063218417	607.0364117410296	114.4615517981119	-1015.914795533957	583.8804754233217	119.7375791633349	-974.3232433163543	705.9156271281125	225.9936109133682	-873.6457548016882	995.8368586305402	900.1847028206345	-1107.708178623456	875.2322093619695	703.7751560844675	-1176.430280173532	950.501961962291	629.0497822773712	-1058.036573709283	909.1647105315337	461.9841392286496	-1023.134193967373	848.7494375654805	387.686545121291	-1045.83206401539	909.4192841816257	298.9673643904142	-926.7349062374179	857.9646625440679	214.1403227192342	-936.0798926903815	876.0851995117453	124.680652698859	-842.4913857421444	873.3829927298774	55.76375019499991	-968.8971509130769	909.9353988073464	40.16584101263664	-928.9646525798277	836.1356647080659	99.92510210785919	-768.3246402400223	
